<?xml version="1.0" standalone="no"?><!DOCTYPE svg PUBLIC "-//W3C//DTD SVG 1.1//EN" "http://www.w3.org/Graphics/SVG/1.1/DTD/svg11.dtd"><svg t="1526116195253" class="icon" style="" viewBox="0 0 1024 1024" version="1.1" xmlns="http://www.w3.org/2000/svg" p-id="1571" xmlns:xlink="http://www.w3.org/1999/xlink" width="16" height="16"><defs><style type="text/css"></style></defs><path d="M512.380158 754.423285c-107.999736 0-195.8649-87.871303-195.8649-195.871039s87.865163-195.865923 195.8649-195.865923S708.244035 450.552509 708.244035 558.552246 620.379894 754.423285 512.380158 754.423285zM512.380158 390.17642c-92.845595 0-168.375825 75.530231-168.375825 168.375825 0 92.844571 75.530231 168.381965 168.375825 168.381965 92.844571 0 168.374802-75.53637 168.374802-168.381965C680.75496 465.706651 605.22473 390.17642 512.380158 390.17642z" p-id="1572" fill="#ffffff"></path><path d="M411.575288 519.250124c-2.38942 0-4.805446-0.618077-7.006578-1.933025-6.523577-3.865028-8.671497-12.308327-4.805446-18.831904 26.925233-45.328371 76.362178-73.489758 129.046075-73.489758 7.583722 0 13.746072 6.148024 13.746072 13.745049 0 7.597025-6.161327 13.745049-13.746072 13.745049-43.033096 0-83.408665 23.00597-105.408725 60.040445C420.836209 516.847401 416.259984 519.250124 411.575288 519.250124z" p-id="1573" fill="#ffffff"></path><path d="M392.568399 583.988568c-7.597025 0-13.745049-6.147-13.745049-13.746072 0-12.093433 1.422396-18.764366 3.932566-29.516244 1.718131-7.396457 9.060353-11.972683 16.510022-10.254551 7.382131 1.718131 11.985986 9.113565 10.254551 16.510022-2.227738 9.530051-3.208065 14.133905-3.208065 23.260773C406.313447 577.841567 400.152121 583.988568 392.568399 583.988568z" p-id="1574" fill="#ffffff"></path><path d="M863.815229 895.632377 160.945087 895.632377c-54.41533 0-96.912214-44.189432-96.912214-95.597265L64.032874 372.055714c0-50.979068 41.544185-94.952582 96.912214-94.952582l66.375733 0 47.489594-95.086635c0.523933-1.060145 1.127683-1.865487 1.785669-2.845815 32.644491-48.657186 66.228377-53.073776 97.825003-53.073776l18.443048-0.188288L623.882672 125.908618c51.879578 0 89.650833 17.288758 115.477035 51.919487 0.670266 0.899486 1.288343 1.623987 1.838881 2.604314l55.180763 96.670713 67.435878 0c51.220568 0 93.63661 40.456411 93.63661 94.952582l0 427.978375C957.45184 855.041914 914.20385 895.632377 863.815229 895.632377zM160.945087 332.083328c-21.811772 0-41.933041 17.97335-41.933041 39.972387l0 427.978375c0 20.938891 18.120706 40.61707 41.933041 40.61707l702.870142 0c22.965038 0 38.657438-20.617573 38.657438-40.61707L902.472668 372.055714c0-18.886139-14.013155-39.972387-38.657438-39.972387l-83.408665 0c-9.880021 0-19.006889-4.845355-23.8942-13.43601l-62.187341-108.980064c-15.262612-19.677155-36.443004-27.972075-70.443375-27.972075l-249.461585-0.094144c-21.381983 0-33.542954 1.248434-51.208289 26.979468l-54.241368 108.697631c-4.643764 9.341762-14.187117 14.805194-24.617677 14.805194L160.945087 332.083328z" p-id="1575" fill="#ffffff"></path><path d="M924.727531 483.276818 677.332001 483.276818c-7.597025 0-13.745049-6.148024-13.745049-13.745049 0-7.597025 6.148024-13.745049 13.745049-13.745049l247.39553 0c7.583722 0 13.745049 6.148024 13.745049 13.745049C938.47258 477.128795 932.311253 483.276818 924.727531 483.276818z" p-id="1576" fill="#ffffff"></path><path d="M347.440595 483.276818 86.287737 483.276818c-7.598049 0-13.745049-6.148024-13.745049-13.745049 0-7.597025 6.147-13.745049 13.745049-13.745049l261.152858 0c7.583722 0 13.745049 6.148024 13.745049 13.745049C361.185644 477.128795 355.024318 483.276818 347.440595 483.276818z" p-id="1577" fill="#ffffff"></path><path d="M732.298893 675.706479l-68.725244 0c-7.597025 0-13.745049-6.148024-13.745049-13.745049 0-7.598049 6.148024-13.746072 13.745049-13.746072l68.725244 0c7.583722 0 13.745049 6.148024 13.745049 13.746072C746.043942 669.558455 739.882616 675.706479 732.298893 675.706479z" p-id="1578" fill="#ffffff"></path><path d="M787.279089 675.706479l-13.746072 0c-7.597025 0-13.745049-6.148024-13.745049-13.745049 0-7.598049 6.148024-13.746072 13.745049-13.746072l13.746072 0c7.582699 0 13.744026 6.148024 13.744026 13.746072C801.022091 669.558455 794.861788 675.706479 787.279089 675.706479z" p-id="1579" fill="#ffffff"></path><path d="M910.981459 675.706479 828.513212 675.706479c-7.597025 0-13.745049-6.148024-13.745049-13.745049 0-7.598049 6.148024-13.746072 13.745049-13.746072l82.46927 0c7.584746 0 13.746072 6.148024 13.746072 13.746072C924.727531 669.558455 918.566204 675.706479 910.981459 675.706479z" p-id="1580" fill="#ffffff"></path><path d="M347.440595 675.706479 86.287737 675.706479c-7.598049 0-13.745049-6.148024-13.745049-13.745049 0-7.598049 6.147-13.746072 13.745049-13.746072l261.152858 0c7.583722 0 13.745049 6.148024 13.745049 13.746072C361.185644 669.558455 355.024318 675.706479 347.440595 675.706479z" p-id="1581" fill="#ffffff"></path></svg>